<mxfile host="app.diagrams.net" modified="2021-07-17T01:06:29.290Z" agent="5.0 (Windows)" etag="xxuzkwXwT0baEaeou8uN" version="14.8.5" type="github">
  <diagram id="7WyufB8X4WBuho2PgSER" name="Page-1">
    <mxGraphModel dx="1185" dy="636" grid="1" gridSize="10" guides="1" tooltips="1" connect="1" arrows="1" fold="1" page="1" pageScale="1" pageWidth="4681" pageHeight="3300" math="0" shadow="0">
      <root>
        <mxCell id="0" />
        <mxCell id="1" parent="0" />
        <mxCell id="f8PvgQ1qYLkd--0cgGJ3-1" value="" style="rounded=0;whiteSpace=wrap;html=1;" parent="1" vertex="1">
          <mxGeometry x="80" y="80" width="40" height="160" as="geometry" />
        </mxCell>
        <mxCell id="f8PvgQ1qYLkd--0cgGJ3-2" value="" style="rounded=0;whiteSpace=wrap;html=1;" parent="1" vertex="1">
          <mxGeometry x="80" y="120" width="40" height="40" as="geometry" />
        </mxCell>
        <mxCell id="f8PvgQ1qYLkd--0cgGJ3-3" value="" style="rounded=0;whiteSpace=wrap;html=1;" parent="1" vertex="1">
          <mxGeometry x="80" y="160" width="40" height="40" as="geometry" />
        </mxCell>
        <mxCell id="f8PvgQ1qYLkd--0cgGJ3-4" value="" style="rounded=0;whiteSpace=wrap;html=1;" parent="1" vertex="1">
          <mxGeometry x="80" y="200" width="40" height="40" as="geometry" />
        </mxCell>
        <mxCell id="f8PvgQ1qYLkd--0cgGJ3-5" value="" style="rounded=0;whiteSpace=wrap;html=1;fillColor=#ffe6cc;strokeColor=#d79b00;" parent="1" vertex="1">
          <mxGeometry x="80" y="80" width="40" height="40" as="geometry" />
        </mxCell>
        <mxCell id="f8PvgQ1qYLkd--0cgGJ3-6" value="&lt;div&gt;A&lt;/div&gt;" style="text;html=1;strokeColor=none;fillColor=none;align=center;verticalAlign=middle;whiteSpace=wrap;rounded=0;" parent="1" vertex="1">
          <mxGeometry x="80" y="90" width="40" height="20" as="geometry" />
        </mxCell>
        <mxCell id="f8PvgQ1qYLkd--0cgGJ3-7" value="C" style="text;html=1;strokeColor=none;fillColor=none;align=center;verticalAlign=middle;whiteSpace=wrap;rounded=0;" parent="1" vertex="1">
          <mxGeometry x="80" y="130" width="40" height="20" as="geometry" />
        </mxCell>
        <mxCell id="f8PvgQ1qYLkd--0cgGJ3-8" value="G" style="text;html=1;strokeColor=none;fillColor=none;align=center;verticalAlign=middle;whiteSpace=wrap;rounded=0;" parent="1" vertex="1">
          <mxGeometry x="80" y="170" width="40" height="20" as="geometry" />
        </mxCell>
        <mxCell id="f8PvgQ1qYLkd--0cgGJ3-9" value="T" style="text;html=1;strokeColor=none;fillColor=none;align=center;verticalAlign=middle;whiteSpace=wrap;rounded=0;" parent="1" vertex="1">
          <mxGeometry x="80" y="210" width="40" height="20" as="geometry" />
        </mxCell>
        <mxCell id="f8PvgQ1qYLkd--0cgGJ3-10" value="" style="rounded=0;whiteSpace=wrap;html=1;" parent="1" vertex="1">
          <mxGeometry x="120" y="80" width="40" height="160" as="geometry" />
        </mxCell>
        <mxCell id="f8PvgQ1qYLkd--0cgGJ3-11" value="" style="rounded=0;whiteSpace=wrap;html=1;fillColor=#dae8fc;strokeColor=#6c8ebf;" parent="1" vertex="1">
          <mxGeometry x="120" y="120" width="40" height="40" as="geometry" />
        </mxCell>
        <mxCell id="f8PvgQ1qYLkd--0cgGJ3-12" value="" style="rounded=0;whiteSpace=wrap;html=1;" parent="1" vertex="1">
          <mxGeometry x="120" y="160" width="40" height="40" as="geometry" />
        </mxCell>
        <mxCell id="f8PvgQ1qYLkd--0cgGJ3-13" value="" style="rounded=0;whiteSpace=wrap;html=1;" parent="1" vertex="1">
          <mxGeometry x="120" y="200" width="40" height="40" as="geometry" />
        </mxCell>
        <mxCell id="f8PvgQ1qYLkd--0cgGJ3-14" value="" style="rounded=0;whiteSpace=wrap;html=1;" parent="1" vertex="1">
          <mxGeometry x="120" y="80" width="40" height="40" as="geometry" />
        </mxCell>
        <mxCell id="f8PvgQ1qYLkd--0cgGJ3-15" value="&lt;div&gt;A&lt;/div&gt;" style="text;html=1;strokeColor=none;fillColor=none;align=center;verticalAlign=middle;whiteSpace=wrap;rounded=0;" parent="1" vertex="1">
          <mxGeometry x="120" y="90" width="40" height="20" as="geometry" />
        </mxCell>
        <mxCell id="f8PvgQ1qYLkd--0cgGJ3-16" value="C" style="text;html=1;strokeColor=none;fillColor=none;align=center;verticalAlign=middle;whiteSpace=wrap;rounded=0;" parent="1" vertex="1">
          <mxGeometry x="120" y="130" width="40" height="20" as="geometry" />
        </mxCell>
        <mxCell id="f8PvgQ1qYLkd--0cgGJ3-17" value="G" style="text;html=1;strokeColor=none;fillColor=none;align=center;verticalAlign=middle;whiteSpace=wrap;rounded=0;" parent="1" vertex="1">
          <mxGeometry x="120" y="170" width="40" height="20" as="geometry" />
        </mxCell>
        <mxCell id="f8PvgQ1qYLkd--0cgGJ3-18" value="T" style="text;html=1;strokeColor=none;fillColor=none;align=center;verticalAlign=middle;whiteSpace=wrap;rounded=0;" parent="1" vertex="1">
          <mxGeometry x="120" y="210" width="40" height="20" as="geometry" />
        </mxCell>
        <mxCell id="f8PvgQ1qYLkd--0cgGJ3-19" value="" style="rounded=0;whiteSpace=wrap;html=1;" parent="1" vertex="1">
          <mxGeometry x="120" y="80" width="40" height="160" as="geometry" />
        </mxCell>
        <mxCell id="f8PvgQ1qYLkd--0cgGJ3-20" value="" style="rounded=0;whiteSpace=wrap;html=1;fillColor=#dae8fc;strokeColor=#6c8ebf;" parent="1" vertex="1">
          <mxGeometry x="120" y="120" width="40" height="40" as="geometry" />
        </mxCell>
        <mxCell id="f8PvgQ1qYLkd--0cgGJ3-21" value="" style="rounded=0;whiteSpace=wrap;html=1;" parent="1" vertex="1">
          <mxGeometry x="120" y="160" width="40" height="40" as="geometry" />
        </mxCell>
        <mxCell id="f8PvgQ1qYLkd--0cgGJ3-22" value="" style="rounded=0;whiteSpace=wrap;html=1;" parent="1" vertex="1">
          <mxGeometry x="120" y="200" width="40" height="40" as="geometry" />
        </mxCell>
        <mxCell id="f8PvgQ1qYLkd--0cgGJ3-23" value="" style="rounded=0;whiteSpace=wrap;html=1;" parent="1" vertex="1">
          <mxGeometry x="120" y="80" width="40" height="40" as="geometry" />
        </mxCell>
        <mxCell id="f8PvgQ1qYLkd--0cgGJ3-24" value="&lt;div&gt;A&lt;/div&gt;" style="text;html=1;strokeColor=none;fillColor=none;align=center;verticalAlign=middle;whiteSpace=wrap;rounded=0;" parent="1" vertex="1">
          <mxGeometry x="120" y="90" width="40" height="20" as="geometry" />
        </mxCell>
        <mxCell id="f8PvgQ1qYLkd--0cgGJ3-25" value="C" style="text;html=1;strokeColor=none;fillColor=none;align=center;verticalAlign=middle;whiteSpace=wrap;rounded=0;" parent="1" vertex="1">
          <mxGeometry x="120" y="130" width="40" height="20" as="geometry" />
        </mxCell>
        <mxCell id="f8PvgQ1qYLkd--0cgGJ3-26" value="G" style="text;html=1;strokeColor=none;fillColor=none;align=center;verticalAlign=middle;whiteSpace=wrap;rounded=0;" parent="1" vertex="1">
          <mxGeometry x="120" y="170" width="40" height="20" as="geometry" />
        </mxCell>
        <mxCell id="f8PvgQ1qYLkd--0cgGJ3-27" value="T" style="text;html=1;strokeColor=none;fillColor=none;align=center;verticalAlign=middle;whiteSpace=wrap;rounded=0;" parent="1" vertex="1">
          <mxGeometry x="120" y="210" width="40" height="20" as="geometry" />
        </mxCell>
        <mxCell id="f8PvgQ1qYLkd--0cgGJ3-28" value="" style="rounded=0;whiteSpace=wrap;html=1;" parent="1" vertex="1">
          <mxGeometry x="160" y="80" width="40" height="160" as="geometry" />
        </mxCell>
        <mxCell id="f8PvgQ1qYLkd--0cgGJ3-29" value="" style="rounded=0;whiteSpace=wrap;html=1;fillColor=#dae8fc;strokeColor=#6c8ebf;" parent="1" vertex="1">
          <mxGeometry x="160" y="120" width="40" height="40" as="geometry" />
        </mxCell>
        <mxCell id="f8PvgQ1qYLkd--0cgGJ3-30" value="" style="rounded=0;whiteSpace=wrap;html=1;" parent="1" vertex="1">
          <mxGeometry x="160" y="160" width="40" height="40" as="geometry" />
        </mxCell>
        <mxCell id="f8PvgQ1qYLkd--0cgGJ3-31" value="" style="rounded=0;whiteSpace=wrap;html=1;" parent="1" vertex="1">
          <mxGeometry x="160" y="200" width="40" height="40" as="geometry" />
        </mxCell>
        <mxCell id="f8PvgQ1qYLkd--0cgGJ3-32" value="" style="rounded=0;whiteSpace=wrap;html=1;" parent="1" vertex="1">
          <mxGeometry x="160" y="80" width="40" height="40" as="geometry" />
        </mxCell>
        <mxCell id="f8PvgQ1qYLkd--0cgGJ3-33" value="&lt;div&gt;A&lt;/div&gt;" style="text;html=1;strokeColor=none;fillColor=none;align=center;verticalAlign=middle;whiteSpace=wrap;rounded=0;" parent="1" vertex="1">
          <mxGeometry x="160" y="90" width="40" height="20" as="geometry" />
        </mxCell>
        <mxCell id="f8PvgQ1qYLkd--0cgGJ3-34" value="C" style="text;html=1;strokeColor=none;fillColor=none;align=center;verticalAlign=middle;whiteSpace=wrap;rounded=0;" parent="1" vertex="1">
          <mxGeometry x="160" y="130" width="40" height="20" as="geometry" />
        </mxCell>
        <mxCell id="f8PvgQ1qYLkd--0cgGJ3-35" value="G" style="text;html=1;strokeColor=none;fillColor=none;align=center;verticalAlign=middle;whiteSpace=wrap;rounded=0;" parent="1" vertex="1">
          <mxGeometry x="160" y="170" width="40" height="20" as="geometry" />
        </mxCell>
        <mxCell id="f8PvgQ1qYLkd--0cgGJ3-36" value="T" style="text;html=1;strokeColor=none;fillColor=none;align=center;verticalAlign=middle;whiteSpace=wrap;rounded=0;" parent="1" vertex="1">
          <mxGeometry x="160" y="210" width="40" height="20" as="geometry" />
        </mxCell>
        <mxCell id="f8PvgQ1qYLkd--0cgGJ3-37" value="" style="rounded=0;whiteSpace=wrap;html=1;" parent="1" vertex="1">
          <mxGeometry x="160" y="80" width="40" height="160" as="geometry" />
        </mxCell>
        <mxCell id="f8PvgQ1qYLkd--0cgGJ3-38" value="" style="rounded=0;whiteSpace=wrap;html=1;" parent="1" vertex="1">
          <mxGeometry x="160" y="120" width="40" height="40" as="geometry" />
        </mxCell>
        <mxCell id="f8PvgQ1qYLkd--0cgGJ3-39" value="" style="rounded=0;whiteSpace=wrap;html=1;fillColor=#f8cecc;strokeColor=#b85450;" parent="1" vertex="1">
          <mxGeometry x="160" y="160" width="40" height="40" as="geometry" />
        </mxCell>
        <mxCell id="f8PvgQ1qYLkd--0cgGJ3-40" value="" style="rounded=0;whiteSpace=wrap;html=1;" parent="1" vertex="1">
          <mxGeometry x="160" y="200" width="40" height="40" as="geometry" />
        </mxCell>
        <mxCell id="f8PvgQ1qYLkd--0cgGJ3-41" value="" style="rounded=0;whiteSpace=wrap;html=1;" parent="1" vertex="1">
          <mxGeometry x="160" y="80" width="40" height="40" as="geometry" />
        </mxCell>
        <mxCell id="f8PvgQ1qYLkd--0cgGJ3-42" value="&lt;div&gt;A&lt;/div&gt;" style="text;html=1;strokeColor=none;fillColor=none;align=center;verticalAlign=middle;whiteSpace=wrap;rounded=0;" parent="1" vertex="1">
          <mxGeometry x="160" y="90" width="40" height="20" as="geometry" />
        </mxCell>
        <mxCell id="f8PvgQ1qYLkd--0cgGJ3-43" value="C" style="text;html=1;strokeColor=none;fillColor=none;align=center;verticalAlign=middle;whiteSpace=wrap;rounded=0;" parent="1" vertex="1">
          <mxGeometry x="160" y="130" width="40" height="20" as="geometry" />
        </mxCell>
        <mxCell id="f8PvgQ1qYLkd--0cgGJ3-44" value="G" style="text;html=1;strokeColor=none;fillColor=none;align=center;verticalAlign=middle;whiteSpace=wrap;rounded=0;" parent="1" vertex="1">
          <mxGeometry x="160" y="170" width="40" height="20" as="geometry" />
        </mxCell>
        <mxCell id="f8PvgQ1qYLkd--0cgGJ3-45" value="T" style="text;html=1;strokeColor=none;fillColor=none;align=center;verticalAlign=middle;whiteSpace=wrap;rounded=0;" parent="1" vertex="1">
          <mxGeometry x="160" y="210" width="40" height="20" as="geometry" />
        </mxCell>
        <mxCell id="f8PvgQ1qYLkd--0cgGJ3-46" value="" style="rounded=0;whiteSpace=wrap;html=1;" parent="1" vertex="1">
          <mxGeometry x="200" y="80" width="40" height="160" as="geometry" />
        </mxCell>
        <mxCell id="f8PvgQ1qYLkd--0cgGJ3-47" value="" style="rounded=0;whiteSpace=wrap;html=1;fillColor=#dae8fc;strokeColor=#6c8ebf;" parent="1" vertex="1">
          <mxGeometry x="200" y="120" width="40" height="40" as="geometry" />
        </mxCell>
        <mxCell id="f8PvgQ1qYLkd--0cgGJ3-48" value="" style="rounded=0;whiteSpace=wrap;html=1;" parent="1" vertex="1">
          <mxGeometry x="200" y="160" width="40" height="40" as="geometry" />
        </mxCell>
        <mxCell id="f8PvgQ1qYLkd--0cgGJ3-49" value="" style="rounded=0;whiteSpace=wrap;html=1;" parent="1" vertex="1">
          <mxGeometry x="200" y="200" width="40" height="40" as="geometry" />
        </mxCell>
        <mxCell id="f8PvgQ1qYLkd--0cgGJ3-50" value="" style="rounded=0;whiteSpace=wrap;html=1;" parent="1" vertex="1">
          <mxGeometry x="200" y="80" width="40" height="40" as="geometry" />
        </mxCell>
        <mxCell id="f8PvgQ1qYLkd--0cgGJ3-51" value="&lt;div&gt;A&lt;/div&gt;" style="text;html=1;strokeColor=none;fillColor=none;align=center;verticalAlign=middle;whiteSpace=wrap;rounded=0;" parent="1" vertex="1">
          <mxGeometry x="200" y="90" width="40" height="20" as="geometry" />
        </mxCell>
        <mxCell id="f8PvgQ1qYLkd--0cgGJ3-52" value="C" style="text;html=1;strokeColor=none;fillColor=none;align=center;verticalAlign=middle;whiteSpace=wrap;rounded=0;" parent="1" vertex="1">
          <mxGeometry x="200" y="130" width="40" height="20" as="geometry" />
        </mxCell>
        <mxCell id="f8PvgQ1qYLkd--0cgGJ3-53" value="G" style="text;html=1;strokeColor=none;fillColor=none;align=center;verticalAlign=middle;whiteSpace=wrap;rounded=0;" parent="1" vertex="1">
          <mxGeometry x="200" y="170" width="40" height="20" as="geometry" />
        </mxCell>
        <mxCell id="f8PvgQ1qYLkd--0cgGJ3-54" value="T" style="text;html=1;strokeColor=none;fillColor=none;align=center;verticalAlign=middle;whiteSpace=wrap;rounded=0;" parent="1" vertex="1">
          <mxGeometry x="200" y="210" width="40" height="20" as="geometry" />
        </mxCell>
        <mxCell id="f8PvgQ1qYLkd--0cgGJ3-55" value="" style="rounded=0;whiteSpace=wrap;html=1;" parent="1" vertex="1">
          <mxGeometry x="200" y="80" width="40" height="160" as="geometry" />
        </mxCell>
        <mxCell id="f8PvgQ1qYLkd--0cgGJ3-56" value="" style="rounded=0;whiteSpace=wrap;html=1;" parent="1" vertex="1">
          <mxGeometry x="200" y="120" width="40" height="40" as="geometry" />
        </mxCell>
        <mxCell id="f8PvgQ1qYLkd--0cgGJ3-57" value="" style="rounded=0;whiteSpace=wrap;html=1;" parent="1" vertex="1">
          <mxGeometry x="200" y="160" width="40" height="40" as="geometry" />
        </mxCell>
        <mxCell id="f8PvgQ1qYLkd--0cgGJ3-58" value="" style="rounded=0;whiteSpace=wrap;html=1;fillColor=#d5e8d4;strokeColor=#82b366;" parent="1" vertex="1">
          <mxGeometry x="200" y="200" width="40" height="40" as="geometry" />
        </mxCell>
        <mxCell id="f8PvgQ1qYLkd--0cgGJ3-59" value="" style="rounded=0;whiteSpace=wrap;html=1;" parent="1" vertex="1">
          <mxGeometry x="200" y="80" width="40" height="40" as="geometry" />
        </mxCell>
        <mxCell id="f8PvgQ1qYLkd--0cgGJ3-60" value="&lt;div&gt;A&lt;/div&gt;" style="text;html=1;strokeColor=none;fillColor=none;align=center;verticalAlign=middle;whiteSpace=wrap;rounded=0;" parent="1" vertex="1">
          <mxGeometry x="200" y="90" width="40" height="20" as="geometry" />
        </mxCell>
        <mxCell id="f8PvgQ1qYLkd--0cgGJ3-61" style="edgeStyle=orthogonalEdgeStyle;curved=1;rounded=0;orthogonalLoop=1;jettySize=auto;html=1;entryX=0;entryY=0;entryDx=0;entryDy=0;exitX=1;exitY=0;exitDx=0;exitDy=0;" parent="1" source="f8PvgQ1qYLkd--0cgGJ3-57" edge="1">
          <mxGeometry relative="1" as="geometry">
            <Array as="points">
              <mxPoint x="270" y="160" />
              <mxPoint x="270" y="284" />
            </Array>
            <mxPoint x="330" y="284" as="targetPoint" />
          </mxGeometry>
        </mxCell>
        <mxCell id="f8PvgQ1qYLkd--0cgGJ3-62" value="C" style="text;html=1;align=center;verticalAlign=middle;whiteSpace=wrap;rounded=0;" parent="1" vertex="1">
          <mxGeometry x="200" y="130" width="40" height="20" as="geometry" />
        </mxCell>
        <mxCell id="f8PvgQ1qYLkd--0cgGJ3-63" value="G" style="text;html=1;strokeColor=none;fillColor=none;align=center;verticalAlign=middle;whiteSpace=wrap;rounded=0;" parent="1" vertex="1">
          <mxGeometry x="200" y="170" width="40" height="20" as="geometry" />
        </mxCell>
        <mxCell id="f8PvgQ1qYLkd--0cgGJ3-64" value="T" style="text;html=1;strokeColor=none;fillColor=none;align=center;verticalAlign=middle;whiteSpace=wrap;rounded=0;" parent="1" vertex="1">
          <mxGeometry x="200" y="210" width="40" height="20" as="geometry" />
        </mxCell>
        <mxCell id="f8PvgQ1qYLkd--0cgGJ3-65" value="&lt;div&gt;Promoter in one-hot&lt;/div&gt;" style="text;html=1;strokeColor=none;fillColor=none;align=center;verticalAlign=middle;whiteSpace=wrap;rounded=0;" parent="1" vertex="1">
          <mxGeometry x="80" y="250" width="160" height="20" as="geometry" />
        </mxCell>
        <mxCell id="f8PvgQ1qYLkd--0cgGJ3-66" value="" style="rounded=0;whiteSpace=wrap;html=1;" parent="1" vertex="1">
          <mxGeometry x="80" y="320" width="40" height="160" as="geometry" />
        </mxCell>
        <mxCell id="f8PvgQ1qYLkd--0cgGJ3-67" value="" style="rounded=0;whiteSpace=wrap;html=1;" parent="1" vertex="1">
          <mxGeometry x="80" y="360" width="40" height="40" as="geometry" />
        </mxCell>
        <mxCell id="f8PvgQ1qYLkd--0cgGJ3-68" value="" style="rounded=0;whiteSpace=wrap;html=1;" parent="1" vertex="1">
          <mxGeometry x="80" y="400" width="40" height="40" as="geometry" />
        </mxCell>
        <mxCell id="f8PvgQ1qYLkd--0cgGJ3-69" value="" style="rounded=0;whiteSpace=wrap;html=1;" parent="1" vertex="1">
          <mxGeometry x="80" y="440" width="40" height="40" as="geometry" />
        </mxCell>
        <mxCell id="f8PvgQ1qYLkd--0cgGJ3-70" value="" style="rounded=0;whiteSpace=wrap;html=1;fillColor=#ffe6cc;strokeColor=#d79b00;" parent="1" vertex="1">
          <mxGeometry x="80" y="320" width="40" height="40" as="geometry" />
        </mxCell>
        <mxCell id="f8PvgQ1qYLkd--0cgGJ3-71" value="&lt;div&gt;A&lt;/div&gt;" style="text;html=1;strokeColor=none;fillColor=none;align=center;verticalAlign=middle;whiteSpace=wrap;rounded=0;" parent="1" vertex="1">
          <mxGeometry x="80" y="330" width="40" height="20" as="geometry" />
        </mxCell>
        <mxCell id="f8PvgQ1qYLkd--0cgGJ3-72" value="C" style="text;html=1;strokeColor=none;fillColor=none;align=center;verticalAlign=middle;whiteSpace=wrap;rounded=0;" parent="1" vertex="1">
          <mxGeometry x="80" y="370" width="40" height="20" as="geometry" />
        </mxCell>
        <mxCell id="f8PvgQ1qYLkd--0cgGJ3-73" value="G" style="text;html=1;strokeColor=none;fillColor=none;align=center;verticalAlign=middle;whiteSpace=wrap;rounded=0;" parent="1" vertex="1">
          <mxGeometry x="80" y="410" width="40" height="20" as="geometry" />
        </mxCell>
        <mxCell id="f8PvgQ1qYLkd--0cgGJ3-74" value="T" style="text;html=1;strokeColor=none;fillColor=none;align=center;verticalAlign=middle;whiteSpace=wrap;rounded=0;" parent="1" vertex="1">
          <mxGeometry x="80" y="450" width="40" height="20" as="geometry" />
        </mxCell>
        <mxCell id="f8PvgQ1qYLkd--0cgGJ3-75" value="" style="rounded=0;whiteSpace=wrap;html=1;" parent="1" vertex="1">
          <mxGeometry x="120" y="320" width="40" height="160" as="geometry" />
        </mxCell>
        <mxCell id="f8PvgQ1qYLkd--0cgGJ3-76" value="" style="rounded=0;whiteSpace=wrap;html=1;fillColor=#dae8fc;strokeColor=#6c8ebf;" parent="1" vertex="1">
          <mxGeometry x="120" y="360" width="40" height="40" as="geometry" />
        </mxCell>
        <mxCell id="f8PvgQ1qYLkd--0cgGJ3-77" value="" style="rounded=0;whiteSpace=wrap;html=1;" parent="1" vertex="1">
          <mxGeometry x="120" y="400" width="40" height="40" as="geometry" />
        </mxCell>
        <mxCell id="f8PvgQ1qYLkd--0cgGJ3-78" value="" style="rounded=0;whiteSpace=wrap;html=1;" parent="1" vertex="1">
          <mxGeometry x="120" y="440" width="40" height="40" as="geometry" />
        </mxCell>
        <mxCell id="f8PvgQ1qYLkd--0cgGJ3-79" value="" style="rounded=0;whiteSpace=wrap;html=1;" parent="1" vertex="1">
          <mxGeometry x="120" y="320" width="40" height="40" as="geometry" />
        </mxCell>
        <mxCell id="f8PvgQ1qYLkd--0cgGJ3-80" value="&lt;div&gt;A&lt;/div&gt;" style="text;html=1;strokeColor=none;fillColor=none;align=center;verticalAlign=middle;whiteSpace=wrap;rounded=0;" parent="1" vertex="1">
          <mxGeometry x="120" y="330" width="40" height="20" as="geometry" />
        </mxCell>
        <mxCell id="f8PvgQ1qYLkd--0cgGJ3-81" value="C" style="text;html=1;strokeColor=none;fillColor=none;align=center;verticalAlign=middle;whiteSpace=wrap;rounded=0;" parent="1" vertex="1">
          <mxGeometry x="120" y="370" width="40" height="20" as="geometry" />
        </mxCell>
        <mxCell id="f8PvgQ1qYLkd--0cgGJ3-82" value="G" style="text;html=1;strokeColor=none;fillColor=none;align=center;verticalAlign=middle;whiteSpace=wrap;rounded=0;" parent="1" vertex="1">
          <mxGeometry x="120" y="410" width="40" height="20" as="geometry" />
        </mxCell>
        <mxCell id="f8PvgQ1qYLkd--0cgGJ3-83" value="T" style="text;html=1;strokeColor=none;fillColor=none;align=center;verticalAlign=middle;whiteSpace=wrap;rounded=0;" parent="1" vertex="1">
          <mxGeometry x="120" y="450" width="40" height="20" as="geometry" />
        </mxCell>
        <mxCell id="f8PvgQ1qYLkd--0cgGJ3-84" value="" style="rounded=0;whiteSpace=wrap;html=1;" parent="1" vertex="1">
          <mxGeometry x="120" y="320" width="40" height="160" as="geometry" />
        </mxCell>
        <mxCell id="f8PvgQ1qYLkd--0cgGJ3-85" value="" style="rounded=0;whiteSpace=wrap;html=1;fillColor=#dae8fc;strokeColor=#6c8ebf;" parent="1" vertex="1">
          <mxGeometry x="120" y="360" width="40" height="40" as="geometry" />
        </mxCell>
        <mxCell id="f8PvgQ1qYLkd--0cgGJ3-86" value="" style="rounded=0;whiteSpace=wrap;html=1;" parent="1" vertex="1">
          <mxGeometry x="120" y="400" width="40" height="40" as="geometry" />
        </mxCell>
        <mxCell id="f8PvgQ1qYLkd--0cgGJ3-87" value="" style="rounded=0;whiteSpace=wrap;html=1;" parent="1" vertex="1">
          <mxGeometry x="120" y="440" width="40" height="40" as="geometry" />
        </mxCell>
        <mxCell id="f8PvgQ1qYLkd--0cgGJ3-88" value="" style="rounded=0;whiteSpace=wrap;html=1;" parent="1" vertex="1">
          <mxGeometry x="120" y="320" width="40" height="40" as="geometry" />
        </mxCell>
        <mxCell id="f8PvgQ1qYLkd--0cgGJ3-89" value="&lt;div&gt;A&lt;/div&gt;" style="text;html=1;strokeColor=none;fillColor=none;align=center;verticalAlign=middle;whiteSpace=wrap;rounded=0;" parent="1" vertex="1">
          <mxGeometry x="120" y="330" width="40" height="20" as="geometry" />
        </mxCell>
        <mxCell id="f8PvgQ1qYLkd--0cgGJ3-90" value="C" style="text;html=1;strokeColor=none;fillColor=none;align=center;verticalAlign=middle;whiteSpace=wrap;rounded=0;" parent="1" vertex="1">
          <mxGeometry x="120" y="370" width="40" height="20" as="geometry" />
        </mxCell>
        <mxCell id="f8PvgQ1qYLkd--0cgGJ3-91" value="G" style="text;html=1;strokeColor=none;fillColor=none;align=center;verticalAlign=middle;whiteSpace=wrap;rounded=0;" parent="1" vertex="1">
          <mxGeometry x="120" y="410" width="40" height="20" as="geometry" />
        </mxCell>
        <mxCell id="f8PvgQ1qYLkd--0cgGJ3-92" value="T" style="text;html=1;strokeColor=none;fillColor=none;align=center;verticalAlign=middle;whiteSpace=wrap;rounded=0;" parent="1" vertex="1">
          <mxGeometry x="120" y="450" width="40" height="20" as="geometry" />
        </mxCell>
        <mxCell id="f8PvgQ1qYLkd--0cgGJ3-93" value="" style="rounded=0;whiteSpace=wrap;html=1;" parent="1" vertex="1">
          <mxGeometry x="160" y="320" width="40" height="160" as="geometry" />
        </mxCell>
        <mxCell id="f8PvgQ1qYLkd--0cgGJ3-94" value="" style="rounded=0;whiteSpace=wrap;html=1;fillColor=#dae8fc;strokeColor=#6c8ebf;" parent="1" vertex="1">
          <mxGeometry x="160" y="360" width="40" height="40" as="geometry" />
        </mxCell>
        <mxCell id="f8PvgQ1qYLkd--0cgGJ3-95" value="" style="rounded=0;whiteSpace=wrap;html=1;" parent="1" vertex="1">
          <mxGeometry x="160" y="400" width="40" height="40" as="geometry" />
        </mxCell>
        <mxCell id="f8PvgQ1qYLkd--0cgGJ3-96" value="" style="rounded=0;whiteSpace=wrap;html=1;" parent="1" vertex="1">
          <mxGeometry x="160" y="440" width="40" height="40" as="geometry" />
        </mxCell>
        <mxCell id="f8PvgQ1qYLkd--0cgGJ3-97" value="" style="rounded=0;whiteSpace=wrap;html=1;" parent="1" vertex="1">
          <mxGeometry x="160" y="320" width="40" height="40" as="geometry" />
        </mxCell>
        <mxCell id="f8PvgQ1qYLkd--0cgGJ3-98" value="&lt;div&gt;A&lt;/div&gt;" style="text;html=1;strokeColor=none;fillColor=none;align=center;verticalAlign=middle;whiteSpace=wrap;rounded=0;" parent="1" vertex="1">
          <mxGeometry x="160" y="330" width="40" height="20" as="geometry" />
        </mxCell>
        <mxCell id="f8PvgQ1qYLkd--0cgGJ3-99" value="C" style="text;html=1;strokeColor=none;fillColor=none;align=center;verticalAlign=middle;whiteSpace=wrap;rounded=0;" parent="1" vertex="1">
          <mxGeometry x="160" y="370" width="40" height="20" as="geometry" />
        </mxCell>
        <mxCell id="f8PvgQ1qYLkd--0cgGJ3-100" value="G" style="text;html=1;strokeColor=none;fillColor=none;align=center;verticalAlign=middle;whiteSpace=wrap;rounded=0;" parent="1" vertex="1">
          <mxGeometry x="160" y="410" width="40" height="20" as="geometry" />
        </mxCell>
        <mxCell id="f8PvgQ1qYLkd--0cgGJ3-101" value="T" style="text;html=1;strokeColor=none;fillColor=none;align=center;verticalAlign=middle;whiteSpace=wrap;rounded=0;" parent="1" vertex="1">
          <mxGeometry x="160" y="450" width="40" height="20" as="geometry" />
        </mxCell>
        <mxCell id="f8PvgQ1qYLkd--0cgGJ3-102" value="" style="rounded=0;whiteSpace=wrap;html=1;" parent="1" vertex="1">
          <mxGeometry x="160" y="320" width="40" height="160" as="geometry" />
        </mxCell>
        <mxCell id="f8PvgQ1qYLkd--0cgGJ3-103" value="" style="rounded=0;whiteSpace=wrap;html=1;" parent="1" vertex="1">
          <mxGeometry x="160" y="360" width="40" height="40" as="geometry" />
        </mxCell>
        <mxCell id="f8PvgQ1qYLkd--0cgGJ3-104" value="" style="rounded=0;whiteSpace=wrap;html=1;fillColor=#f8cecc;strokeColor=#b85450;" parent="1" vertex="1">
          <mxGeometry x="160" y="400" width="40" height="40" as="geometry" />
        </mxCell>
        <mxCell id="f8PvgQ1qYLkd--0cgGJ3-105" value="" style="rounded=0;whiteSpace=wrap;html=1;" parent="1" vertex="1">
          <mxGeometry x="160" y="440" width="40" height="40" as="geometry" />
        </mxCell>
        <mxCell id="f8PvgQ1qYLkd--0cgGJ3-106" value="" style="rounded=0;whiteSpace=wrap;html=1;" parent="1" vertex="1">
          <mxGeometry x="160" y="320" width="40" height="40" as="geometry" />
        </mxCell>
        <mxCell id="f8PvgQ1qYLkd--0cgGJ3-107" value="&lt;div&gt;A&lt;/div&gt;" style="text;html=1;strokeColor=none;fillColor=none;align=center;verticalAlign=middle;whiteSpace=wrap;rounded=0;" parent="1" vertex="1">
          <mxGeometry x="160" y="330" width="40" height="20" as="geometry" />
        </mxCell>
        <mxCell id="f8PvgQ1qYLkd--0cgGJ3-108" value="C" style="text;html=1;strokeColor=none;fillColor=none;align=center;verticalAlign=middle;whiteSpace=wrap;rounded=0;" parent="1" vertex="1">
          <mxGeometry x="160" y="370" width="40" height="20" as="geometry" />
        </mxCell>
        <mxCell id="f8PvgQ1qYLkd--0cgGJ3-109" value="G" style="text;html=1;strokeColor=none;fillColor=none;align=center;verticalAlign=middle;whiteSpace=wrap;rounded=0;" parent="1" vertex="1">
          <mxGeometry x="160" y="410" width="40" height="20" as="geometry" />
        </mxCell>
        <mxCell id="f8PvgQ1qYLkd--0cgGJ3-110" value="T" style="text;html=1;strokeColor=none;fillColor=none;align=center;verticalAlign=middle;whiteSpace=wrap;rounded=0;" parent="1" vertex="1">
          <mxGeometry x="160" y="450" width="40" height="20" as="geometry" />
        </mxCell>
        <mxCell id="f8PvgQ1qYLkd--0cgGJ3-111" value="" style="rounded=0;whiteSpace=wrap;html=1;" parent="1" vertex="1">
          <mxGeometry x="200" y="320" width="40" height="160" as="geometry" />
        </mxCell>
        <mxCell id="f8PvgQ1qYLkd--0cgGJ3-112" value="" style="rounded=0;whiteSpace=wrap;html=1;fillColor=#dae8fc;strokeColor=#6c8ebf;" parent="1" vertex="1">
          <mxGeometry x="200" y="360" width="40" height="40" as="geometry" />
        </mxCell>
        <mxCell id="f8PvgQ1qYLkd--0cgGJ3-113" value="" style="rounded=0;whiteSpace=wrap;html=1;" parent="1" vertex="1">
          <mxGeometry x="200" y="400" width="40" height="40" as="geometry" />
        </mxCell>
        <mxCell id="f8PvgQ1qYLkd--0cgGJ3-114" value="" style="rounded=0;whiteSpace=wrap;html=1;" parent="1" vertex="1">
          <mxGeometry x="200" y="440" width="40" height="40" as="geometry" />
        </mxCell>
        <mxCell id="f8PvgQ1qYLkd--0cgGJ3-115" value="" style="rounded=0;whiteSpace=wrap;html=1;" parent="1" vertex="1">
          <mxGeometry x="200" y="320" width="40" height="40" as="geometry" />
        </mxCell>
        <mxCell id="f8PvgQ1qYLkd--0cgGJ3-116" value="&lt;div&gt;A&lt;/div&gt;" style="text;html=1;strokeColor=none;fillColor=none;align=center;verticalAlign=middle;whiteSpace=wrap;rounded=0;" parent="1" vertex="1">
          <mxGeometry x="200" y="330" width="40" height="20" as="geometry" />
        </mxCell>
        <mxCell id="f8PvgQ1qYLkd--0cgGJ3-117" value="C" style="text;html=1;strokeColor=none;fillColor=none;align=center;verticalAlign=middle;whiteSpace=wrap;rounded=0;" parent="1" vertex="1">
          <mxGeometry x="200" y="370" width="40" height="20" as="geometry" />
        </mxCell>
        <mxCell id="f8PvgQ1qYLkd--0cgGJ3-118" value="G" style="text;html=1;strokeColor=none;fillColor=none;align=center;verticalAlign=middle;whiteSpace=wrap;rounded=0;" parent="1" vertex="1">
          <mxGeometry x="200" y="410" width="40" height="20" as="geometry" />
        </mxCell>
        <mxCell id="f8PvgQ1qYLkd--0cgGJ3-119" value="T" style="text;html=1;strokeColor=none;fillColor=none;align=center;verticalAlign=middle;whiteSpace=wrap;rounded=0;" parent="1" vertex="1">
          <mxGeometry x="200" y="450" width="40" height="20" as="geometry" />
        </mxCell>
        <mxCell id="f8PvgQ1qYLkd--0cgGJ3-120" value="" style="rounded=0;whiteSpace=wrap;html=1;" parent="1" vertex="1">
          <mxGeometry x="200" y="320" width="40" height="160" as="geometry" />
        </mxCell>
        <mxCell id="f8PvgQ1qYLkd--0cgGJ3-121" value="" style="rounded=0;whiteSpace=wrap;html=1;" parent="1" vertex="1">
          <mxGeometry x="200" y="360" width="40" height="40" as="geometry" />
        </mxCell>
        <mxCell id="f8PvgQ1qYLkd--0cgGJ3-122" value="" style="rounded=0;whiteSpace=wrap;html=1;" parent="1" vertex="1">
          <mxGeometry x="200" y="400" width="40" height="40" as="geometry" />
        </mxCell>
        <mxCell id="f8PvgQ1qYLkd--0cgGJ3-123" value="" style="rounded=0;whiteSpace=wrap;html=1;fillColor=#d5e8d4;strokeColor=#82b366;" parent="1" vertex="1">
          <mxGeometry x="200" y="440" width="40" height="40" as="geometry" />
        </mxCell>
        <mxCell id="f8PvgQ1qYLkd--0cgGJ3-124" value="" style="rounded=0;whiteSpace=wrap;html=1;" parent="1" vertex="1">
          <mxGeometry x="200" y="320" width="40" height="40" as="geometry" />
        </mxCell>
        <mxCell id="f8PvgQ1qYLkd--0cgGJ3-125" value="&lt;div&gt;A&lt;/div&gt;" style="text;html=1;strokeColor=none;fillColor=none;align=center;verticalAlign=middle;whiteSpace=wrap;rounded=0;" parent="1" vertex="1">
          <mxGeometry x="200" y="330" width="40" height="20" as="geometry" />
        </mxCell>
        <mxCell id="f8PvgQ1qYLkd--0cgGJ3-126" style="edgeStyle=orthogonalEdgeStyle;curved=1;rounded=0;orthogonalLoop=1;jettySize=auto;html=1;entryX=0;entryY=0;entryDx=0;entryDy=0;exitX=1;exitY=0;exitDx=0;exitDy=0;" parent="1" source="f8PvgQ1qYLkd--0cgGJ3-122" edge="1">
          <mxGeometry relative="1" as="geometry">
            <Array as="points">
              <mxPoint x="285" y="400" />
              <mxPoint x="285" y="284" />
            </Array>
            <mxPoint x="330" y="284" as="targetPoint" />
          </mxGeometry>
        </mxCell>
        <mxCell id="f8PvgQ1qYLkd--0cgGJ3-127" value="C" style="text;html=1;align=center;verticalAlign=middle;whiteSpace=wrap;rounded=0;" parent="1" vertex="1">
          <mxGeometry x="200" y="370" width="40" height="20" as="geometry" />
        </mxCell>
        <mxCell id="f8PvgQ1qYLkd--0cgGJ3-128" value="G" style="text;html=1;strokeColor=none;fillColor=none;align=center;verticalAlign=middle;whiteSpace=wrap;rounded=0;" parent="1" vertex="1">
          <mxGeometry x="200" y="410" width="40" height="20" as="geometry" />
        </mxCell>
        <mxCell id="f8PvgQ1qYLkd--0cgGJ3-129" value="T" style="text;html=1;strokeColor=none;fillColor=none;align=center;verticalAlign=middle;whiteSpace=wrap;rounded=0;" parent="1" vertex="1">
          <mxGeometry x="200" y="450" width="40" height="20" as="geometry" />
        </mxCell>
        <mxCell id="f8PvgQ1qYLkd--0cgGJ3-130" value="&lt;div&gt;Enhancer in one-hot&lt;/div&gt;" style="text;html=1;strokeColor=none;fillColor=none;align=center;verticalAlign=middle;whiteSpace=wrap;rounded=0;" parent="1" vertex="1">
          <mxGeometry x="80" y="490" width="160" height="20" as="geometry" />
        </mxCell>
        <mxCell id="f8PvgQ1qYLkd--0cgGJ3-246" style="rounded=1;jumpSize=20;orthogonalLoop=1;jettySize=auto;html=1;entryX=0;entryY=0.5;entryDx=0;entryDy=0;strokeWidth=1;" parent="1" source="f8PvgQ1qYLkd--0cgGJ3-247" target="f8PvgQ1qYLkd--0cgGJ3-271" edge="1">
          <mxGeometry relative="1" as="geometry" />
        </mxCell>
        <mxCell id="f8PvgQ1qYLkd--0cgGJ3-247" value="" style="ellipse;whiteSpace=wrap;html=1;aspect=fixed;" parent="1" vertex="1">
          <mxGeometry x="330" y="149" width="30" height="30" as="geometry" />
        </mxCell>
        <mxCell id="oDDGFXUuPNc7k1UO4jNH-1" style="rounded=0;orthogonalLoop=1;jettySize=auto;html=1;entryX=0;entryY=0.5;entryDx=0;entryDy=0;" edge="1" parent="1" source="f8PvgQ1qYLkd--0cgGJ3-248" target="f8PvgQ1qYLkd--0cgGJ3-264">
          <mxGeometry relative="1" as="geometry" />
        </mxCell>
        <mxCell id="f8PvgQ1qYLkd--0cgGJ3-248" value="" style="ellipse;whiteSpace=wrap;html=1;aspect=fixed;" parent="1" vertex="1">
          <mxGeometry x="330" y="189" width="30" height="30" as="geometry" />
        </mxCell>
        <mxCell id="f8PvgQ1qYLkd--0cgGJ3-249" style="rounded=1;jumpSize=20;orthogonalLoop=1;jettySize=auto;html=1;entryX=0;entryY=0.5;entryDx=0;entryDy=0;strokeWidth=1;" parent="1" source="f8PvgQ1qYLkd--0cgGJ3-252" target="f8PvgQ1qYLkd--0cgGJ3-264" edge="1">
          <mxGeometry relative="1" as="geometry" />
        </mxCell>
        <mxCell id="f8PvgQ1qYLkd--0cgGJ3-250" style="edgeStyle=none;rounded=1;jumpSize=20;orthogonalLoop=1;jettySize=auto;html=1;entryX=0;entryY=0.5;entryDx=0;entryDy=0;strokeWidth=1;" parent="1" source="f8PvgQ1qYLkd--0cgGJ3-252" target="f8PvgQ1qYLkd--0cgGJ3-277" edge="1">
          <mxGeometry relative="1" as="geometry" />
        </mxCell>
        <mxCell id="f8PvgQ1qYLkd--0cgGJ3-251" style="edgeStyle=none;rounded=1;jumpSize=20;orthogonalLoop=1;jettySize=auto;html=1;entryX=0;entryY=0.5;entryDx=0;entryDy=0;strokeWidth=1;" parent="1" source="f8PvgQ1qYLkd--0cgGJ3-252" target="f8PvgQ1qYLkd--0cgGJ3-274" edge="1">
          <mxGeometry relative="1" as="geometry" />
        </mxCell>
        <mxCell id="f8PvgQ1qYLkd--0cgGJ3-252" value="" style="ellipse;whiteSpace=wrap;html=1;aspect=fixed;" parent="1" vertex="1">
          <mxGeometry x="330" y="229" width="30" height="30" as="geometry" />
        </mxCell>
        <mxCell id="f8PvgQ1qYLkd--0cgGJ3-253" style="rounded=1;jumpSize=20;orthogonalLoop=1;jettySize=auto;html=1;entryX=0;entryY=0.5;entryDx=0;entryDy=0;strokeWidth=1;" parent="1" source="f8PvgQ1qYLkd--0cgGJ3-254" target="f8PvgQ1qYLkd--0cgGJ3-267" edge="1">
          <mxGeometry relative="1" as="geometry" />
        </mxCell>
        <mxCell id="f8PvgQ1qYLkd--0cgGJ3-254" value="" style="ellipse;whiteSpace=wrap;html=1;aspect=fixed;" parent="1" vertex="1">
          <mxGeometry x="330" y="269" width="30" height="30" as="geometry" />
        </mxCell>
        <mxCell id="f8PvgQ1qYLkd--0cgGJ3-255" style="rounded=1;jumpSize=20;orthogonalLoop=1;jettySize=auto;html=1;entryX=0;entryY=0.5;entryDx=0;entryDy=0;strokeWidth=1;" parent="1" source="f8PvgQ1qYLkd--0cgGJ3-258" target="f8PvgQ1qYLkd--0cgGJ3-266" edge="1">
          <mxGeometry relative="1" as="geometry" />
        </mxCell>
        <mxCell id="f8PvgQ1qYLkd--0cgGJ3-256" style="edgeStyle=none;rounded=1;jumpSize=20;orthogonalLoop=1;jettySize=auto;html=1;entryX=0;entryY=0.5;entryDx=0;entryDy=0;strokeWidth=1;" parent="1" source="f8PvgQ1qYLkd--0cgGJ3-258" target="f8PvgQ1qYLkd--0cgGJ3-279" edge="1">
          <mxGeometry relative="1" as="geometry" />
        </mxCell>
        <mxCell id="f8PvgQ1qYLkd--0cgGJ3-257" style="edgeStyle=none;rounded=1;jumpSize=20;orthogonalLoop=1;jettySize=auto;html=1;entryX=0;entryY=0.5;entryDx=0;entryDy=0;strokeWidth=1;" parent="1" source="f8PvgQ1qYLkd--0cgGJ3-258" target="f8PvgQ1qYLkd--0cgGJ3-277" edge="1">
          <mxGeometry relative="1" as="geometry" />
        </mxCell>
        <mxCell id="f8PvgQ1qYLkd--0cgGJ3-258" value="" style="ellipse;whiteSpace=wrap;html=1;aspect=fixed;" parent="1" vertex="1">
          <mxGeometry x="330" y="309" width="30" height="30" as="geometry" />
        </mxCell>
        <mxCell id="f8PvgQ1qYLkd--0cgGJ3-259" style="edgeStyle=none;rounded=1;jumpSize=20;orthogonalLoop=1;jettySize=auto;html=1;entryX=0;entryY=0.5;entryDx=0;entryDy=0;strokeWidth=1;" parent="1" source="f8PvgQ1qYLkd--0cgGJ3-260" target="f8PvgQ1qYLkd--0cgGJ3-266" edge="1">
          <mxGeometry relative="1" as="geometry" />
        </mxCell>
        <mxCell id="f8PvgQ1qYLkd--0cgGJ3-260" value="" style="ellipse;whiteSpace=wrap;html=1;aspect=fixed;" parent="1" vertex="1">
          <mxGeometry x="330" y="349" width="30" height="30" as="geometry" />
        </mxCell>
        <mxCell id="f8PvgQ1qYLkd--0cgGJ3-261" style="edgeStyle=none;rounded=1;jumpSize=20;orthogonalLoop=1;jettySize=auto;html=1;entryX=0;entryY=0.5;entryDx=0;entryDy=0;strokeWidth=1;" parent="1" source="f8PvgQ1qYLkd--0cgGJ3-262" target="f8PvgQ1qYLkd--0cgGJ3-277" edge="1">
          <mxGeometry relative="1" as="geometry" />
        </mxCell>
        <mxCell id="f8PvgQ1qYLkd--0cgGJ3-262" value="" style="ellipse;whiteSpace=wrap;html=1;aspect=fixed;" parent="1" vertex="1">
          <mxGeometry x="330" y="389" width="30" height="30" as="geometry" />
        </mxCell>
        <mxCell id="f8PvgQ1qYLkd--0cgGJ3-263" style="edgeStyle=none;rounded=1;jumpSize=20;orthogonalLoop=1;jettySize=auto;html=1;entryX=0;entryY=0.5;entryDx=0;entryDy=0;strokeWidth=1;" parent="1" source="f8PvgQ1qYLkd--0cgGJ3-264" target="f8PvgQ1qYLkd--0cgGJ3-542" edge="1">
          <mxGeometry relative="1" as="geometry" />
        </mxCell>
        <mxCell id="f8PvgQ1qYLkd--0cgGJ3-264" value="" style="ellipse;whiteSpace=wrap;html=1;aspect=fixed;" parent="1" vertex="1">
          <mxGeometry x="410" y="149" width="30" height="30" as="geometry" />
        </mxCell>
        <mxCell id="f8PvgQ1qYLkd--0cgGJ3-265" style="edgeStyle=none;rounded=1;jumpSize=20;orthogonalLoop=1;jettySize=auto;html=1;entryX=0;entryY=0.5;entryDx=0;entryDy=0;strokeWidth=1;" parent="1" source="f8PvgQ1qYLkd--0cgGJ3-266" target="f8PvgQ1qYLkd--0cgGJ3-547" edge="1">
          <mxGeometry relative="1" as="geometry" />
        </mxCell>
        <mxCell id="f8PvgQ1qYLkd--0cgGJ3-266" value="" style="ellipse;whiteSpace=wrap;html=1;aspect=fixed;" parent="1" vertex="1">
          <mxGeometry x="410" y="189" width="30" height="30" as="geometry" />
        </mxCell>
        <mxCell id="f8PvgQ1qYLkd--0cgGJ3-267" value="" style="ellipse;whiteSpace=wrap;html=1;aspect=fixed;" parent="1" vertex="1">
          <mxGeometry x="410" y="229" width="30" height="30" as="geometry" />
        </mxCell>
        <mxCell id="f8PvgQ1qYLkd--0cgGJ3-268" style="edgeStyle=none;rounded=1;jumpSize=20;orthogonalLoop=1;jettySize=auto;html=1;entryX=0;entryY=0.5;entryDx=0;entryDy=0;strokeWidth=1;" parent="1" source="f8PvgQ1qYLkd--0cgGJ3-271" target="f8PvgQ1qYLkd--0cgGJ3-536" edge="1">
          <mxGeometry relative="1" as="geometry" />
        </mxCell>
        <mxCell id="f8PvgQ1qYLkd--0cgGJ3-269" style="edgeStyle=none;rounded=1;jumpSize=20;orthogonalLoop=1;jettySize=auto;html=1;entryX=0;entryY=0.5;entryDx=0;entryDy=0;strokeWidth=1;" parent="1" source="f8PvgQ1qYLkd--0cgGJ3-271" target="f8PvgQ1qYLkd--0cgGJ3-544" edge="1">
          <mxGeometry relative="1" as="geometry" />
        </mxCell>
        <mxCell id="f8PvgQ1qYLkd--0cgGJ3-270" style="edgeStyle=none;rounded=1;jumpSize=20;orthogonalLoop=1;jettySize=auto;html=1;entryX=0;entryY=0.5;entryDx=0;entryDy=0;strokeWidth=1;" parent="1" source="f8PvgQ1qYLkd--0cgGJ3-271" target="f8PvgQ1qYLkd--0cgGJ3-538" edge="1">
          <mxGeometry relative="1" as="geometry" />
        </mxCell>
        <mxCell id="f8PvgQ1qYLkd--0cgGJ3-271" value="" style="ellipse;whiteSpace=wrap;html=1;aspect=fixed;" parent="1" vertex="1">
          <mxGeometry x="410" y="269" width="30" height="30" as="geometry" />
        </mxCell>
        <mxCell id="f8PvgQ1qYLkd--0cgGJ3-272" style="edgeStyle=none;rounded=1;jumpSize=20;orthogonalLoop=1;jettySize=auto;html=1;entryX=0;entryY=0.5;entryDx=0;entryDy=0;strokeWidth=1;" parent="1" source="f8PvgQ1qYLkd--0cgGJ3-274" target="f8PvgQ1qYLkd--0cgGJ3-538" edge="1">
          <mxGeometry relative="1" as="geometry" />
        </mxCell>
        <mxCell id="f8PvgQ1qYLkd--0cgGJ3-273" style="edgeStyle=none;rounded=1;jumpSize=20;orthogonalLoop=1;jettySize=auto;html=1;entryX=0;entryY=0.5;entryDx=0;entryDy=0;strokeWidth=1;" parent="1" source="f8PvgQ1qYLkd--0cgGJ3-274" target="f8PvgQ1qYLkd--0cgGJ3-547" edge="1">
          <mxGeometry relative="1" as="geometry" />
        </mxCell>
        <mxCell id="f8PvgQ1qYLkd--0cgGJ3-274" value="" style="ellipse;whiteSpace=wrap;html=1;aspect=fixed;" parent="1" vertex="1">
          <mxGeometry x="410" y="309" width="30" height="30" as="geometry" />
        </mxCell>
        <mxCell id="f8PvgQ1qYLkd--0cgGJ3-275" style="edgeStyle=none;rounded=1;jumpSize=20;orthogonalLoop=1;jettySize=auto;html=1;entryX=0;entryY=0.5;entryDx=0;entryDy=0;strokeWidth=1;" parent="1" source="f8PvgQ1qYLkd--0cgGJ3-277" target="f8PvgQ1qYLkd--0cgGJ3-540" edge="1">
          <mxGeometry relative="1" as="geometry" />
        </mxCell>
        <mxCell id="f8PvgQ1qYLkd--0cgGJ3-276" style="edgeStyle=none;rounded=1;jumpSize=20;orthogonalLoop=1;jettySize=auto;html=1;entryX=0;entryY=0.5;entryDx=0;entryDy=0;strokeWidth=1;" parent="1" source="f8PvgQ1qYLkd--0cgGJ3-277" target="f8PvgQ1qYLkd--0cgGJ3-549" edge="1">
          <mxGeometry relative="1" as="geometry" />
        </mxCell>
        <mxCell id="f8PvgQ1qYLkd--0cgGJ3-277" value="" style="ellipse;whiteSpace=wrap;html=1;aspect=fixed;" parent="1" vertex="1">
          <mxGeometry x="410" y="349" width="30" height="30" as="geometry" />
        </mxCell>
        <mxCell id="f8PvgQ1qYLkd--0cgGJ3-278" style="edgeStyle=none;rounded=1;jumpSize=20;orthogonalLoop=1;jettySize=auto;html=1;entryX=0;entryY=0.5;entryDx=0;entryDy=0;strokeWidth=1;" parent="1" source="f8PvgQ1qYLkd--0cgGJ3-279" target="f8PvgQ1qYLkd--0cgGJ3-544" edge="1">
          <mxGeometry relative="1" as="geometry" />
        </mxCell>
        <mxCell id="f8PvgQ1qYLkd--0cgGJ3-279" value="" style="ellipse;whiteSpace=wrap;html=1;aspect=fixed;" parent="1" vertex="1">
          <mxGeometry x="410" y="389" width="30" height="30" as="geometry" />
        </mxCell>
        <mxCell id="f8PvgQ1qYLkd--0cgGJ3-280" value="Dense layers" style="text;html=1;strokeColor=none;fillColor=none;align=center;verticalAlign=middle;whiteSpace=wrap;rounded=0;" parent="1" vertex="1">
          <mxGeometry x="380" y="434" width="250" height="20" as="geometry" />
        </mxCell>
        <mxCell id="f8PvgQ1qYLkd--0cgGJ3-533" value="Flatten" style="text;html=1;strokeColor=none;fillColor=none;align=center;verticalAlign=middle;whiteSpace=wrap;rounded=0;" parent="1" vertex="1">
          <mxGeometry x="220" y="434" width="250" height="20" as="geometry" />
        </mxCell>
        <mxCell id="f8PvgQ1qYLkd--0cgGJ3-534" style="edgeStyle=none;rounded=1;jumpSize=20;orthogonalLoop=1;jettySize=auto;html=1;entryX=0;entryY=0.5;entryDx=0;entryDy=0;strokeWidth=1;" parent="1" source="f8PvgQ1qYLkd--0cgGJ3-536" target="f8PvgQ1qYLkd--0cgGJ3-561" edge="1">
          <mxGeometry relative="1" as="geometry" />
        </mxCell>
        <mxCell id="f8PvgQ1qYLkd--0cgGJ3-535" style="edgeStyle=none;rounded=1;jumpSize=20;orthogonalLoop=1;jettySize=auto;html=1;strokeWidth=1;" parent="1" source="f8PvgQ1qYLkd--0cgGJ3-536" edge="1">
          <mxGeometry relative="1" as="geometry">
            <mxPoint x="570" y="324" as="targetPoint" />
          </mxGeometry>
        </mxCell>
        <mxCell id="f8PvgQ1qYLkd--0cgGJ3-536" value="" style="ellipse;whiteSpace=wrap;html=1;aspect=fixed;" parent="1" vertex="1">
          <mxGeometry x="490" y="149" width="30" height="30" as="geometry" />
        </mxCell>
        <mxCell id="f8PvgQ1qYLkd--0cgGJ3-537" style="edgeStyle=none;rounded=1;jumpSize=20;orthogonalLoop=1;jettySize=auto;html=1;entryX=0;entryY=0.5;entryDx=0;entryDy=0;strokeWidth=1;" parent="1" source="f8PvgQ1qYLkd--0cgGJ3-538" target="f8PvgQ1qYLkd--0cgGJ3-567" edge="1">
          <mxGeometry relative="1" as="geometry" />
        </mxCell>
        <mxCell id="f8PvgQ1qYLkd--0cgGJ3-538" value="" style="ellipse;whiteSpace=wrap;html=1;aspect=fixed;" parent="1" vertex="1">
          <mxGeometry x="490" y="189" width="30" height="30" as="geometry" />
        </mxCell>
        <mxCell id="f8PvgQ1qYLkd--0cgGJ3-539" style="edgeStyle=none;rounded=1;jumpSize=20;orthogonalLoop=1;jettySize=auto;html=1;entryX=0;entryY=0.5;entryDx=0;entryDy=0;strokeWidth=1;" parent="1" source="f8PvgQ1qYLkd--0cgGJ3-540" target="f8PvgQ1qYLkd--0cgGJ3-564" edge="1">
          <mxGeometry relative="1" as="geometry" />
        </mxCell>
        <mxCell id="f8PvgQ1qYLkd--0cgGJ3-540" value="" style="ellipse;whiteSpace=wrap;html=1;aspect=fixed;" parent="1" vertex="1">
          <mxGeometry x="490" y="229" width="30" height="30" as="geometry" />
        </mxCell>
        <mxCell id="f8PvgQ1qYLkd--0cgGJ3-541" style="edgeStyle=none;rounded=1;jumpSize=20;orthogonalLoop=1;jettySize=auto;html=1;entryX=0;entryY=0.5;entryDx=0;entryDy=0;strokeWidth=1;" parent="1" source="f8PvgQ1qYLkd--0cgGJ3-542" target="f8PvgQ1qYLkd--0cgGJ3-555" edge="1">
          <mxGeometry relative="1" as="geometry" />
        </mxCell>
        <mxCell id="f8PvgQ1qYLkd--0cgGJ3-542" value="" style="ellipse;whiteSpace=wrap;html=1;aspect=fixed;" parent="1" vertex="1">
          <mxGeometry x="490" y="269" width="30" height="30" as="geometry" />
        </mxCell>
        <mxCell id="f8PvgQ1qYLkd--0cgGJ3-543" style="edgeStyle=none;rounded=1;jumpSize=20;orthogonalLoop=1;jettySize=auto;html=1;entryX=0;entryY=0.5;entryDx=0;entryDy=0;strokeWidth=1;" parent="1" source="f8PvgQ1qYLkd--0cgGJ3-544" target="f8PvgQ1qYLkd--0cgGJ3-570" edge="1">
          <mxGeometry relative="1" as="geometry" />
        </mxCell>
        <mxCell id="f8PvgQ1qYLkd--0cgGJ3-544" value="" style="ellipse;whiteSpace=wrap;html=1;aspect=fixed;" parent="1" vertex="1">
          <mxGeometry x="490" y="309" width="30" height="30" as="geometry" />
        </mxCell>
        <mxCell id="f8PvgQ1qYLkd--0cgGJ3-545" style="edgeStyle=none;rounded=1;jumpSize=20;orthogonalLoop=1;jettySize=auto;html=1;entryX=0;entryY=0.5;entryDx=0;entryDy=0;strokeWidth=1;" parent="1" source="f8PvgQ1qYLkd--0cgGJ3-547" target="f8PvgQ1qYLkd--0cgGJ3-558" edge="1">
          <mxGeometry relative="1" as="geometry" />
        </mxCell>
        <mxCell id="f8PvgQ1qYLkd--0cgGJ3-546" style="edgeStyle=none;rounded=1;jumpSize=20;orthogonalLoop=1;jettySize=auto;html=1;entryX=0;entryY=0.5;entryDx=0;entryDy=0;strokeWidth=1;" parent="1" source="f8PvgQ1qYLkd--0cgGJ3-547" target="f8PvgQ1qYLkd--0cgGJ3-567" edge="1">
          <mxGeometry relative="1" as="geometry" />
        </mxCell>
        <mxCell id="f8PvgQ1qYLkd--0cgGJ3-547" value="" style="ellipse;whiteSpace=wrap;html=1;aspect=fixed;" parent="1" vertex="1">
          <mxGeometry x="490" y="349" width="30" height="30" as="geometry" />
        </mxCell>
        <mxCell id="f8PvgQ1qYLkd--0cgGJ3-548" style="edgeStyle=none;rounded=1;jumpSize=20;orthogonalLoop=1;jettySize=auto;html=1;entryX=0;entryY=0.5;entryDx=0;entryDy=0;strokeWidth=1;" parent="1" source="f8PvgQ1qYLkd--0cgGJ3-549" target="f8PvgQ1qYLkd--0cgGJ3-552" edge="1">
          <mxGeometry relative="1" as="geometry" />
        </mxCell>
        <mxCell id="f8PvgQ1qYLkd--0cgGJ3-549" value="" style="ellipse;whiteSpace=wrap;html=1;aspect=fixed;" parent="1" vertex="1">
          <mxGeometry x="490" y="389" width="30" height="30" as="geometry" />
        </mxCell>
        <mxCell id="f8PvgQ1qYLkd--0cgGJ3-550" style="edgeStyle=none;rounded=1;jumpSize=20;orthogonalLoop=1;jettySize=auto;html=1;entryX=0;entryY=0.5;entryDx=0;entryDy=0;strokeWidth=1;" parent="1" source="f8PvgQ1qYLkd--0cgGJ3-552" target="f8PvgQ1qYLkd--0cgGJ3-572" edge="1">
          <mxGeometry relative="1" as="geometry" />
        </mxCell>
        <mxCell id="f8PvgQ1qYLkd--0cgGJ3-551" style="edgeStyle=none;rounded=1;jumpSize=20;orthogonalLoop=1;jettySize=auto;html=1;entryX=0;entryY=0.5;entryDx=0;entryDy=0;strokeWidth=1;" parent="1" source="f8PvgQ1qYLkd--0cgGJ3-552" target="f8PvgQ1qYLkd--0cgGJ3-573" edge="1">
          <mxGeometry relative="1" as="geometry" />
        </mxCell>
        <mxCell id="f8PvgQ1qYLkd--0cgGJ3-552" value="" style="ellipse;whiteSpace=wrap;html=1;aspect=fixed;" parent="1" vertex="1">
          <mxGeometry x="570" y="149" width="30" height="30" as="geometry" />
        </mxCell>
        <mxCell id="f8PvgQ1qYLkd--0cgGJ3-553" style="edgeStyle=none;rounded=1;jumpSize=20;orthogonalLoop=1;jettySize=auto;html=1;entryX=0;entryY=0.5;entryDx=0;entryDy=0;strokeWidth=1;" parent="1" source="f8PvgQ1qYLkd--0cgGJ3-555" target="f8PvgQ1qYLkd--0cgGJ3-573" edge="1">
          <mxGeometry relative="1" as="geometry" />
        </mxCell>
        <mxCell id="f8PvgQ1qYLkd--0cgGJ3-554" style="edgeStyle=none;rounded=1;jumpSize=20;orthogonalLoop=1;jettySize=auto;html=1;strokeWidth=1;entryX=-0.038;entryY=0.534;entryDx=0;entryDy=0;entryPerimeter=0;" parent="1" source="f8PvgQ1qYLkd--0cgGJ3-555" edge="1" target="f8PvgQ1qYLkd--0cgGJ3-572">
          <mxGeometry relative="1" as="geometry">
            <mxPoint x="670" y="284" as="targetPoint" />
          </mxGeometry>
        </mxCell>
        <mxCell id="f8PvgQ1qYLkd--0cgGJ3-555" value="" style="ellipse;whiteSpace=wrap;html=1;aspect=fixed;" parent="1" vertex="1">
          <mxGeometry x="570" y="189" width="30" height="30" as="geometry" />
        </mxCell>
        <mxCell id="f8PvgQ1qYLkd--0cgGJ3-556" style="edgeStyle=none;rounded=1;jumpSize=20;orthogonalLoop=1;jettySize=auto;html=1;entryX=0;entryY=0.5;entryDx=0;entryDy=0;strokeWidth=1;" parent="1" source="f8PvgQ1qYLkd--0cgGJ3-558" target="f8PvgQ1qYLkd--0cgGJ3-572" edge="1">
          <mxGeometry relative="1" as="geometry" />
        </mxCell>
        <mxCell id="f8PvgQ1qYLkd--0cgGJ3-557" style="edgeStyle=none;rounded=1;jumpSize=20;orthogonalLoop=1;jettySize=auto;html=1;strokeWidth=1;" parent="1" source="f8PvgQ1qYLkd--0cgGJ3-558" edge="1">
          <mxGeometry relative="1" as="geometry">
            <mxPoint x="680" y="324" as="targetPoint" />
          </mxGeometry>
        </mxCell>
        <mxCell id="f8PvgQ1qYLkd--0cgGJ3-558" value="" style="ellipse;whiteSpace=wrap;html=1;aspect=fixed;" parent="1" vertex="1">
          <mxGeometry x="570" y="229" width="30" height="30" as="geometry" />
        </mxCell>
        <mxCell id="f8PvgQ1qYLkd--0cgGJ3-559" style="edgeStyle=none;rounded=1;jumpSize=20;orthogonalLoop=1;jettySize=auto;html=1;entryX=0;entryY=0.5;entryDx=0;entryDy=0;strokeWidth=1;" parent="1" source="f8PvgQ1qYLkd--0cgGJ3-561" target="f8PvgQ1qYLkd--0cgGJ3-573" edge="1">
          <mxGeometry relative="1" as="geometry" />
        </mxCell>
        <mxCell id="f8PvgQ1qYLkd--0cgGJ3-560" style="edgeStyle=none;rounded=1;jumpSize=20;orthogonalLoop=1;jettySize=auto;html=1;strokeWidth=1;" parent="1" source="f8PvgQ1qYLkd--0cgGJ3-561" edge="1">
          <mxGeometry relative="1" as="geometry">
            <mxPoint x="680" y="284" as="targetPoint" />
          </mxGeometry>
        </mxCell>
        <mxCell id="f8PvgQ1qYLkd--0cgGJ3-561" value="" style="ellipse;whiteSpace=wrap;html=1;aspect=fixed;" parent="1" vertex="1">
          <mxGeometry x="570" y="269" width="30" height="30" as="geometry" />
        </mxCell>
        <mxCell id="f8PvgQ1qYLkd--0cgGJ3-562" style="edgeStyle=none;rounded=1;jumpSize=20;orthogonalLoop=1;jettySize=auto;html=1;entryX=0;entryY=0.5;entryDx=0;entryDy=0;strokeWidth=1;" parent="1" source="f8PvgQ1qYLkd--0cgGJ3-564" target="f8PvgQ1qYLkd--0cgGJ3-572" edge="1">
          <mxGeometry relative="1" as="geometry" />
        </mxCell>
        <mxCell id="f8PvgQ1qYLkd--0cgGJ3-563" style="edgeStyle=none;rounded=1;jumpSize=20;orthogonalLoop=1;jettySize=auto;html=1;strokeWidth=1;entryX=0;entryY=0.5;entryDx=0;entryDy=0;" parent="1" source="f8PvgQ1qYLkd--0cgGJ3-564" edge="1" target="f8PvgQ1qYLkd--0cgGJ3-573">
          <mxGeometry relative="1" as="geometry">
            <mxPoint x="670" y="324" as="targetPoint" />
          </mxGeometry>
        </mxCell>
        <mxCell id="f8PvgQ1qYLkd--0cgGJ3-564" value="" style="ellipse;whiteSpace=wrap;html=1;aspect=fixed;" parent="1" vertex="1">
          <mxGeometry x="570" y="309" width="30" height="30" as="geometry" />
        </mxCell>
        <mxCell id="f8PvgQ1qYLkd--0cgGJ3-565" style="edgeStyle=none;rounded=1;jumpSize=20;orthogonalLoop=1;jettySize=auto;html=1;strokeWidth=1;" parent="1" source="f8PvgQ1qYLkd--0cgGJ3-567" edge="1">
          <mxGeometry relative="1" as="geometry">
            <mxPoint x="680" y="324" as="targetPoint" />
          </mxGeometry>
        </mxCell>
        <mxCell id="f8PvgQ1qYLkd--0cgGJ3-566" style="edgeStyle=none;rounded=1;jumpSize=20;orthogonalLoop=1;jettySize=auto;html=1;strokeWidth=1;" parent="1" source="f8PvgQ1qYLkd--0cgGJ3-567" edge="1">
          <mxGeometry relative="1" as="geometry">
            <mxPoint x="670" y="284" as="targetPoint" />
          </mxGeometry>
        </mxCell>
        <mxCell id="f8PvgQ1qYLkd--0cgGJ3-567" value="" style="ellipse;whiteSpace=wrap;html=1;aspect=fixed;" parent="1" vertex="1">
          <mxGeometry x="570" y="349" width="30" height="30" as="geometry" />
        </mxCell>
        <mxCell id="f8PvgQ1qYLkd--0cgGJ3-568" style="edgeStyle=none;rounded=1;jumpSize=20;orthogonalLoop=1;jettySize=auto;html=1;entryX=0;entryY=0.5;entryDx=0;entryDy=0;strokeWidth=1;" parent="1" source="f8PvgQ1qYLkd--0cgGJ3-570" target="f8PvgQ1qYLkd--0cgGJ3-572" edge="1">
          <mxGeometry relative="1" as="geometry" />
        </mxCell>
        <mxCell id="f8PvgQ1qYLkd--0cgGJ3-569" style="edgeStyle=none;rounded=1;jumpSize=20;orthogonalLoop=1;jettySize=auto;html=1;strokeWidth=1;entryX=0;entryY=0.5;entryDx=0;entryDy=0;" parent="1" source="f8PvgQ1qYLkd--0cgGJ3-570" edge="1" target="f8PvgQ1qYLkd--0cgGJ3-573">
          <mxGeometry relative="1" as="geometry">
            <mxPoint x="670" y="324" as="targetPoint" />
          </mxGeometry>
        </mxCell>
        <mxCell id="f8PvgQ1qYLkd--0cgGJ3-570" value="" style="ellipse;whiteSpace=wrap;html=1;aspect=fixed;" parent="1" vertex="1">
          <mxGeometry x="570" y="389" width="30" height="30" as="geometry" />
        </mxCell>
        <mxCell id="f8PvgQ1qYLkd--0cgGJ3-571" value="&lt;div&gt;Output&lt;/div&gt;" style="text;html=1;strokeColor=none;fillColor=none;align=center;verticalAlign=middle;whiteSpace=wrap;rounded=0;" parent="1" vertex="1">
          <mxGeometry x="570" y="434" width="250" height="20" as="geometry" />
        </mxCell>
        <mxCell id="f8PvgQ1qYLkd--0cgGJ3-572" value="" style="ellipse;whiteSpace=wrap;html=1;aspect=fixed;fillColor=#dae8fc;strokeColor=#6c8ebf;" parent="1" vertex="1">
          <mxGeometry x="676" y="269" width="30" height="30" as="geometry" />
        </mxCell>
        <mxCell id="f8PvgQ1qYLkd--0cgGJ3-573" value="" style="ellipse;whiteSpace=wrap;html=1;aspect=fixed;fillColor=#d5e8d4;strokeColor=#82b366;" parent="1" vertex="1">
          <mxGeometry x="676" y="309" width="30" height="30" as="geometry" />
        </mxCell>
      </root>
    </mxGraphModel>
  </diagram>
</mxfile>
